####
#
# OBJ File Generated by Meshlab
#
####
# Object corridor_pyramid_c.obj
#
# Vertices: 149
# Faces: 294
#
####
vn 1.379816 -0.025738 -5.950156
v 0.083447 0.260401 -0.132090
vn 1.046479 -0.218787 -6.090702
v 0.082450 0.262387 -0.132091
vn 2.072931 -0.118404 -5.874543
v 0.083457 0.264382 -0.132089
vn 3.415124 5.069019 -0.464872
v 0.081498 0.273455 -0.126988
vn 1.398324 5.218426 -1.524242
v 0.079414 0.274476 -0.127007
vn 1.848459 2.631194 2.800996
v 0.081483 0.273467 -0.122001
vn -1.738963 -4.112129 3.477390
v 0.082443 0.258302 -0.123963
vn 1.948423 -4.399497 2.121559
v 0.087389 0.258319 -0.123958
vn -1.356832 -1.209970 4.065503
v 0.082405 0.259346 -0.122923
vn -2.233504 -1.357915 -1.741605
v 0.073426 0.265375 -0.128090
vn -1.559963 1.564960 -1.587347
v 0.073387 0.262439 -0.128057
vn 1.108063 2.675488 -2.347734
v 0.070478 0.262420 -0.128075
vn -3.042545 -5.479733 -0.062594
v 0.077374 0.259358 -0.131938
vn -0.566970 -3.277709 -3.458846
v 0.073437 0.261296 -0.133016
vn -1.463504 -4.148274 -3.247158
v 0.077428 0.259345 -0.132081
vn -1.336229 -3.967665 2.397706
v 0.071441 0.261296 -0.127982
vn -0.039160 -1.015975 4.541631
v 0.068475 0.262427 -0.126925
vn -2.155557 -1.388550 0.763763
v 0.068349 0.262359 -0.127006
vn -5.163626 2.309141 -0.303959
v 0.070426 0.273475 -0.127026
vn -3.552617 0.699179 1.682976
v 0.070376 0.273352 -0.126939
vn -1.335636 2.771302 2.185403
v 0.071422 0.274477 -0.126012
vn -2.127243 3.670467 -1.161785
v 0.071444 0.274479 -0.130996
vn 0.089236 3.247668 -5.171129
v 0.071381 0.273428 -0.132060
vn -2.151870 2.674986 -3.602984
v 0.070435 0.273378 -0.132091
vn -1.720147 -2.331393 3.298586
v 0.079414 0.264342 -0.121921
vn 0.059552 0.020450 6.282317
v 0.082430 0.267380 -0.121907
vn -0.026684 0.014894 6.282743
v 0.079423 0.269396 -0.121908
vn -0.664110 1.345959 4.925459
v 0.086378 0.260396 -0.123929
vn 2.864871 0.717465 1.559914
v 0.087524 0.264400 -0.122969
vn 0.646470 -1.287874 4.982058
v 0.084444 0.264381 -0.121907
vn 1.264031 -2.774922 -2.070786
v 0.085424 0.257296 -0.131011
vn 3.624421 -0.108199 -5.021339
v 0.085506 0.259416 -0.131054
vn 4.593408 -1.525943 -1.591123
v 0.087490 0.258426 -0.129064
vn 3.779068 1.889953 -4.605798
v 0.083490 0.268415 -0.131069
vn 4.609756 2.461540 -3.332368
v 0.084518 0.268413 -0.130035
vn 3.778959 1.890303 -4.606141
v 0.084491 0.266414 -0.131069
vn 0.615528 -0.025271 -6.199302
v 0.074474 0.264377 -0.133083
vn 0.007794 -0.160869 -6.278680
v 0.073418 0.262405 -0.133088
vn 0.032449 0.006565 -6.282957
v 0.072442 0.266380 -0.133091
vn 0.191637 0.645906 -6.204950
v 0.074513 0.269362 -0.133046
vn -2.868009 -3.170632 -2.134427
v 0.068451 0.262338 -0.132076
vn -0.674864 -3.050658 -2.829109
v 0.071398 0.261332 -0.133063
vn -0.970641 5.145680 1.460680
v 0.074430 0.274478 -0.127016
vn -0.007128 6.282991 0.031405
v 0.076455 0.274457 -0.125942
vn 1.487774 4.606286 -1.757523
v 0.076443 0.274478 -0.131013
vn -2.053401 -2.132300 4.224798
v 0.077384 0.267336 -0.121942
vn 0.029822 0.033675 6.282354
v 0.077414 0.272367 -0.121912
vn -0.745256 -4.081059 -1.695434
v 0.080482 0.257317 -0.131040
vn 0.009983 -2.831318 -5.608839
v 0.078435 0.259347 -0.132083
vn 1.165490 -5.369250 0.622244
v 0.085438 0.257294 -0.126003
vn 4.301435 -3.349148 0.459433
v 0.087442 0.258330 -0.128926
vn 4.131537 -1.609153 0.445535
v 0.087525 0.258412 -0.124013
vn 3.046450 1.521403 -5.263838
v 0.081478 0.269409 -0.132079
vn 3.812262 2.565202 -4.022017
v 0.082496 0.270402 -0.131069
vn 2.988990 1.155443 3.032922
v 0.084505 0.269447 -0.121982
vn 4.970302 3.543578 0.574770
v 0.083518 0.271417 -0.123033
vn 2.234505 2.094361 3.322913
v 0.082455 0.272405 -0.121910
vn 0.715141 2.989282 2.682492
v 0.079426 0.274470 -0.121959
vn -1.405662 -0.392966 5.028052
v 0.071405 0.269416 -0.125918
vn -0.348228 -1.633202 5.092328
v 0.071471 0.273337 -0.126929
vn -3.940485 1.711551 0.520181
v 0.070353 0.273364 -0.131968
vn -5.500079 -0.131349 1.688171
v 0.071428 0.274308 -0.130952
vn -2.225539 0.710260 -0.907048
v 0.073378 0.270402 -0.128069
vn -4.481624 1.658873 -0.745092
v 0.069445 0.268461 -0.128054
vn -4.229292 -0.319996 -3.749629
v 0.070441 0.273332 -0.127073
vn 4.909956 0.354482 -1.137633
v 0.087504 0.263366 -0.129060
vn 3.767318 0.882474 -4.614237
v 0.085497 0.264402 -0.131068
vn 0.674622 -1.057624 -5.834516
v 0.079471 0.261382 -0.133085
vn 0.069044 -1.021876 -5.900527
v 0.076434 0.261340 -0.133079
vn 0.307016 0.131895 -6.087799
v 0.079514 0.263411 -0.133044
vn 0.993711 -0.036754 -6.125443
v 0.082439 0.261383 -0.132092
vn -0.220329 -1.301869 -5.846590
v 0.077433 0.266377 -0.133091
vn 1.388567 0.734610 -5.839105
v 0.079454 0.269411 -0.133087
vn 0.868818 0.042782 -6.155704
v 0.079461 0.266378 -0.133088
vn -0.748839 -0.178594 4.235889
v 0.071470 0.274323 -0.125941
vn -0.956381 -0.229738 0.248913
v 0.068353 0.267350 -0.127012
vn 0.119959 1.348417 -5.996057
v 0.074416 0.272416 -0.132084
vn 0.585579 1.257439 -5.866500
v 0.073435 0.270400 -0.133091
vn -0.092946 2.486586 -5.341001
v 0.075392 0.273456 -0.132041
vn 1.999686 2.185700 -1.194842
v 0.077495 0.272315 -0.128989
vn 3.631482 3.615040 -3.635969
v 0.081488 0.271428 -0.131065
vn 1.759094 3.772368 -2.952916
v 0.079467 0.272438 -0.132070
vn 3.156880 4.102246 -1.870568
v 0.082489 0.272461 -0.129019
vn -1.415427 -2.058386 2.608569
v 0.071407 0.266345 -0.132922
vn -2.194500 -2.685444 -3.053380
v 0.071406 0.266369 -0.128085
vn -1.992014 1.491859 1.398714
v 0.073379 0.262438 -0.131948
vn 5.688480 2.650516 0.078305
v 0.084526 0.269413 -0.127995
vn 5.075589 2.922512 -1.571640
v 0.084503 0.269443 -0.129031
vn 4.930172 3.487115 -0.769656
v 0.083525 0.271412 -0.127987
vn -4.372735 -2.749785 2.695330
v 0.077369 0.266349 -0.124950
vn 1.396188 0.208098 1.348531
v 0.087485 0.259417 -0.122926
vn 0.546342 1.299650 -5.885819
v 0.078435 0.270413 -0.133088
vn 4.210975 3.337851 -3.152108
v 0.082512 0.271425 -0.130038
vn 2.671068 1.198420 -5.476693
v 0.082488 0.267395 -0.132076
vn -0.384274 -1.435876 -3.548240
v 0.077353 0.265388 -0.131959
vn -0.102949 -1.524570 5.568397
v 0.071426 0.266362 -0.127911
vn -3.833435 2.556712 2.006747
v 0.071467 0.269357 -0.130917
vn 0.278422 3.043246 -5.067967
v 0.076454 0.273415 -0.132086
vn -1.456789 -5.180522 0.384574
v 0.080446 0.257318 -0.126060
vn -2.058231 -0.377627 1.007043
v 0.074369 0.269385 -0.121937
vn -2.457750 -0.279130 -0.375632
v 0.068345 0.267379 -0.132007
vn -3.883355 3.450810 -1.523951
v 0.069398 0.268466 -0.132970
vn -2.262814 0.882287 -3.978282
v 0.069421 0.268379 -0.133090
vn -1.444466 -2.498424 5.486346
v 0.073403 0.267362 -0.126917
vn -1.884133 2.811117 -3.945439
v 0.069475 0.263446 -0.128060
vn -2.752272 -0.535518 -0.453386
v 0.068345 0.262395 -0.131991
vn -1.321779 0.834624 1.034371
v 0.074399 0.274425 -0.121924
vn 2.903969 2.481971 -4.676321
v 0.080487 0.271413 -0.132073
vn 4.486499 4.393207 0.142026
v 0.082484 0.272465 -0.123011
vn -1.002977 -0.235797 -6.080259
v 0.070432 0.267383 -0.133092
vn -0.000151 -0.009490 -6.283168
v 0.071428 0.266374 -0.133090
vn -2.470696 -0.225424 -4.773099
v 0.069431 0.263381 -0.133091
vn 4.696359 2.276374 -3.350971
v 0.085516 0.266416 -0.130037
vn 0.331194 -1.759803 -5.893799
v 0.082387 0.259359 -0.132072
vn 5.613571 2.822011 -0.005180
v 0.084500 0.269435 -0.124048
vn 5.510555 1.778530 0.638726
v 0.085520 0.267429 -0.123999
vn 4.973299 0.756624 -0.001867
v 0.087515 0.264434 -0.127983
vn -2.324722 -3.181679 2.356256
v 0.080382 0.257371 -0.125926
vn -1.334861 -5.043432 2.759452
v 0.074445 0.261319 -0.128061
vn 2.484984 0.772995 -5.538900
v 0.083486 0.265409 -0.132075
vn -1.241332 -1.223538 -5.752697
v 0.070452 0.262400 -0.133089
vn 5.317690 2.787747 -1.016197
v 0.085522 0.267423 -0.128992
vn -1.838573 -0.483428 4.544413
v 0.074408 0.272372 -0.126913
vn 1.089150 -1.051045 -5.670054
v 0.083492 0.259380 -0.132073
vn -2.598707 -1.243490 5.123256
v 0.077402 0.262416 -0.126919
vn -2.591752 -2.409352 4.542867
v 0.080457 0.262359 -0.123913
vn -4.022342 -2.315681 3.828965
v 0.080361 0.261383 -0.124947
vn -2.114002 -3.127721 2.311022
v 0.077405 0.259366 -0.126915
vn -0.651349 -1.508699 5.159125
v 0.073446 0.262420 -0.126913
vn -2.498059 -1.476021 5.224915
v 0.075399 0.265346 -0.126925
vn -1.104600 -0.032025 5.233078
v 0.073422 0.265372 -0.127909
vn -1.736485 -4.430490 -1.647287
v 0.078429 0.259345 -0.127081
vn 5.209789 2.246166 -0.803258
v 0.085383 0.266462 -0.124995
vn -0.144921 -2.240371 4.124319
v 0.082376 0.263454 -0.123981
vn -2.704562 -0.862066 -0.206526
v 0.077381 0.272335 -0.124051
vn 5.202941 -0.603127 -0.403125
v 0.087513 0.263349 -0.124036
vn 0.282534 -5.367990 0.274498
v 0.082504 0.258401 -0.128937
vn 5.724951 -0.472425 1.128479
v 0.087498 0.259437 -0.127951
vn -4.332534 1.470627 -0.105201
v 0.069361 0.263436 -0.132982
vn -0.490478 2.283199 4.479213
v 0.069489 0.263412 -0.132927
vn 0.642288 0.915890 5.708853
v 0.070452 0.262379 -0.127908
vn 3.912969 -0.682965 -0.080684
v 0.085525 0.262358 -0.126004
vn 0.458072 1.736542 2.068532
v 0.070453 0.262394 -0.132908
vn 4.703298 0.807840 -2.084314
v 0.086519 0.260400 -0.124040
vn -3.493545 0.040068 2.569035
v 0.076374 0.269392 -0.125932
vn -3.071111 -1.252339 4.679759
v 0.080375 0.259374 -0.125932
vn 2.099981 0.547116 5.235077
v 0.069473 0.263409 -0.127917
vn -1.278508 -1.641392 -2.596363
v 0.071427 0.273340 -0.127079
vn -2.252723 -3.917097 -1.202754
v 0.070388 0.262313 -0.128025
# 149 vertices, 0 vertices normals

f 1//1 2//2 3//3
f 4//4 5//5 6//6
f 7//7 8//8 9//9
f 10//10 11//11 12//12
f 13//13 14//14 15//15
f 16//16 17//17 18//18
f 19//19 20//20 21//21
f 22//22 23//23 24//24
f 25//25 26//26 27//27
f 28//28 29//29 30//30
f 31//31 32//32 33//33
f 34//34 35//35 36//36
f 37//37 38//38 39//39
f 39//39 40//40 37//37
f 16//16 41//41 42//42
f 43//43 44//44 45//45
f 46//46 27//27 47//47
f 48//48 15//15 49//49
f 48//48 13//13 15//15
f 50//50 31//31 51//51
f 52//52 8//8 50//50
f 34//34 53//53 54//54
f 55//55 56//56 57//57
f 6//6 58//58 47//47
f 59//59 60//60 20//20
f 22//22 61//61 62//62
f 63//63 64//64 65//65
f 58//58 6//6 5//5
f 45//45 44//44 5//5
f 66//66 32//32 67//67
f 68//68 69//69 70//70
f 68//68 2//2 71//71
f 50//50 8//8 7//7
f 27//27 57//57 6//6
f 32//32 1//1 67//67
f 72//72 73//73 74//74
f 21//21 75//75 43//43
f 59//59 64//64 76//76
f 20//20 64//64 59//59
f 23//23 77//77 78//78
f 79//79 77//77 23//23
f 5//5 80//80 45//45
f 81//81 82//82 83//83
f 84//84 10//10 85//85
f 86//86 10//10 84//84
f 76//76 18//18 17//17
f 87//87 88//88 89//89
f 25//25 46//46 90//90
f 9//9 91//91 28//28
f 73//73 72//72 92//92
f 8//8 91//91 9//9
f 93//93 83//83 89//89
f 73//73 53//53 94//94
f 35//35 54//54 88//88
f 93//93 54//54 81//81
f 88//88 93//93 89//89
f 54//54 35//35 34//34
f 95//95 37//37 72//72
f 69//69 37//37 95//95
f 59//59 76//76 96//96
f 43//43 45//45 22//22
f 63//63 97//97 64//64
f 43//43 22//22 21//21
f 98//98 82//82 92//92
f 88//88 54//54 93//93
f 27//27 26//26 57//57
f 50//50 7//7 99//99
f 46//46 47//47 100//100
f 8//8 52//52 91//91
f 45//45 82//82 98//98
f 101//101 102//102 103//103
f 59//59 96//96 104//104
f 95//95 70//70 69//69
f 23//23 78//78 24//24
f 81//81 83//83 93//93
f 5//5 4//4 83//83
f 18//18 105//105 106//106
f 76//76 105//105 18//18
f 58//58 107//107 47//47
f 92//92 82//82 108//108
f 61//61 22//22 24//24
f 58//58 44//44 107//107
f 4//4 6//6 109//109
f 109//109 6//6 57//57
f 110//110 111//111 112//112
f 113//113 36//36 35//35
f 27//27 6//6 47//47
f 114//114 68//68 71//71
f 114//114 71//71 1//1
f 78//78 39//39 110//110
f 4//4 89//89 83//83
f 89//89 115//115 87//87
f 31//31 33//33 51//51
f 116//116 115//115 55//55
f 34//34 94//94 53//53
f 66//66 33//33 32//32
f 113//113 117//117 66//66
f 67//67 113//113 66//66
f 53//53 108//108 54//54
f 82//82 81//81 108//108
f 92//92 108//108 73//73
f 54//54 108//108 81//81
f 7//7 118//118 99//99
f 14//14 119//119 16//16
f 13//13 119//119 14//14
f 22//22 79//79 23//23
f 49//49 69//69 68//68
f 49//49 15//15 69//69
f 89//89 56//56 115//115
f 120//120 3//3 74//74
f 73//73 108//108 53//53
f 109//109 57//57 56//56
f 72//72 74//74 70//70
f 48//48 114//114 31//31
f 1//1 71//71 2//2
f 112//112 111//111 121//121
f 4//4 56//56 89//89
f 109//109 56//56 4//4
f 35//35 122//122 113//113
f 21//21 22//22 19//19
f 10//10 86//86 11//11
f 123//123 43//43 75//75
f 69//69 15//15 14//14
f 42//42 41//41 121//121
f 102//102 61//61 24//24
f 103//103 110//110 101//101
f 87//87 122//122 88//88
f 110//110 103//103 78//78
f 78//78 103//103 102//102
f 78//78 102//102 24//24
f 69//69 38//38 37//37
f 113//113 122//122 117//117
f 120//120 74//74 94//94
f 120//120 36//36 67//67
f 67//67 36//36 113//113
f 124//124 32//32 31//31
f 3//3 120//120 67//67
f 30//30 26//26 25//25
f 38//38 111//111 39//39
f 121//121 111//111 38//38
f 94//94 36//36 120//120
f 34//34 36//36 94//94
f 64//64 85//85 76//76
f 19//19 65//65 20//20
f 90//90 125//125 126//126
f 90//90 126//126 25//25
f 85//85 101//101 84//84
f 5//5 44//44 58//58
f 127//127 126//126 125//125
f 128//128 127//127 125//125
f 30//30 116//116 55//55
f 94//94 74//74 73//73
f 95//95 72//72 70//70
f 129//129 130//130 131//131
f 101//101 97//97 102//102
f 64//64 97//97 101//101
f 35//35 88//88 122//122
f 118//118 128//128 132//132
f 118//118 132//132 99//99
f 74//74 3//3 70//70
f 49//49 114//114 48//48
f 79//79 98//98 77//77
f 133//133 116//116 29//29
f 30//30 29//29 116//116
f 134//134 30//30 25//25
f 100//100 47//47 107//107
f 107//107 135//135 100//100
f 42//42 14//14 16//16
f 133//133 136//136 117//117
f 29//29 136//136 133//133
f 119//119 128//128 125//125
f 119//119 125//125 129//129
f 13//13 48//48 132//132
f 102//102 97//97 61//61
f 32//32 124//124 1//1
f 117//117 122//122 133//133
f 99//99 137//137 50//50
f 31//31 50//50 137//137
f 48//48 137//137 99//99
f 31//31 137//137 48//48
f 28//28 136//136 29//29
f 91//91 136//136 28//28
f 55//55 57//57 26//26
f 27//27 46//46 25//25
f 129//129 16//16 119//119
f 125//125 130//130 129//129
f 33//33 66//66 138//138
f 33//33 138//138 51//51
f 22//22 45//45 79//79
f 50//50 51//51 138//138
f 50//50 138//138 52//52
f 40//40 78//78 77//77
f 41//41 139//139 112//112
f 105//105 12//12 140//140
f 128//128 119//119 13//13
f 55//55 26//26 30//30
f 82//82 80//80 83//83
f 107//107 44//44 43//43
f 21//21 20//20 75//75
f 133//133 122//122 87//87
f 133//133 87//87 116//116
f 13//13 132//132 128//128
f 85//85 10//10 12//12
f 129//129 141//141 16//16
f 17//17 16//16 141//141
f 66//66 142//142 138//138
f 107//107 123//123 135//135
f 123//123 107//107 43//43
f 134//134 25//25 126//126
f 84//84 101//101 140//140
f 84//84 140//140 86//86
f 127//127 9//9 126//126
f 134//134 126//126 9//9
f 110//110 139//139 101//101
f 112//112 139//139 110//110
f 105//105 140//140 106//106
f 87//87 115//115 116//116
f 14//14 42//42 38//38
f 112//112 121//121 41//41
f 105//105 76//76 85//85
f 104//104 130//130 90//90
f 90//90 46//46 100//100
f 125//125 90//90 130//130
f 64//64 101//101 85//85
f 140//140 101//101 139//139
f 140//140 139//139 106//106
f 86//86 143//143 12//12
f 30//30 134//134 28//28
f 9//9 28//28 134//134
f 52//52 144//144 91//91
f 52//52 138//138 144//144
f 91//91 144//144 136//136
f 59//59 145//145 123//123
f 59//59 104//104 145//145
f 135//135 145//145 100//100
f 123//123 145//145 135//135
f 90//90 100//100 145//145
f 90//90 145//145 104//104
f 9//9 146//146 7//7
f 127//127 146//146 9//9
f 85//85 12//12 105//105
f 56//56 55//55 115//115
f 14//14 38//38 69//69
f 124//124 31//31 114//114
f 92//92 72//72 40//40
f 72//72 37//37 40//40
f 144//144 138//138 142//142
f 144//144 142//142 136//136
f 92//92 77//77 98//98
f 17//17 147//147 76//76
f 136//136 142//142 117//117
f 117//117 142//142 66//66
f 141//141 96//96 147//147
f 78//78 40//40 39//39
f 70//70 3//3 2//2
f 70//70 2//2 68//68
f 141//141 147//147 17//17
f 128//128 146//146 127//127
f 96//96 131//131 104//104
f 86//86 12//12 11//11
f 140//140 12//12 143//143
f 96//96 129//129 131//131
f 20//20 65//65 64//64
f 63//63 65//65 148//148
f 128//128 118//118 146//146
f 123//123 60//60 59//59
f 75//75 60//60 123//123
f 3//3 67//67 1//1
f 45//45 98//98 79//79
f 86//86 140//140 143//143
f 38//38 42//42 121//121
f 110//110 39//39 111//111
f 48//48 99//99 132//132
f 83//83 80//80 5//5
f 75//75 20//20 60//60
f 82//82 45//45 80//80
f 118//118 7//7 146//146
f 40//40 77//77 92//92
f 106//106 139//139 41//41
f 63//63 148//148 62//62
f 63//63 62//62 97//97
f 97//97 62//62 61//61
f 148//148 65//65 62//62
f 65//65 19//19 62//62
f 22//22 62//62 19//19
f 96//96 76//76 147//147
f 141//141 129//129 96//96
f 1//1 124//124 114//114
f 18//18 149//149 16//16
f 106//106 149//149 18//18
f 68//68 114//114 49//49
f 104//104 131//131 130//130
f 106//106 41//41 149//149
f 16//16 149//149 41//41
# 294 faces, 0 coords texture

# End of File
