####
#
# OBJ File Generated by Meshlab
#
####
# Object corridor_pyramid_b.obj
#
# Vertices: 108
# Faces: 212
#
####
vn 5.729088 1.580522 0.323842
v 0.083841 0.275891 -0.108491
vn 4.841827 3.954021 -0.001182
v 0.081776 0.279016 -0.110433
vn 4.879066 3.836881 0.342759
v 0.081771 0.279018 -0.105412
vn -2.423202 -4.463384 -2.034447
v 0.068437 0.263627 -0.093069
vn -4.692494 -1.533727 1.528300
v 0.067356 0.264755 -0.089117
vn -2.696202 -2.080022 -2.102011
v 0.067410 0.264698 -0.094204
vn 3.621985 5.030962 0.058032
v 0.079704 0.281087 -0.108507
vn -3.459520 -2.353041 2.550485
v 0.068376 0.263727 -0.088095
vn -6.282585 0.017972 0.015146
v 0.067356 0.269748 -0.094110
vn -3.341160 -2.038618 -2.245267
v 0.067369 0.270851 -0.098247
vn -4.539583 -1.666485 -2.217834
v 0.067356 0.268828 -0.096160
vn 4.266991 -2.077322 -1.553711
v 0.083840 0.270895 -0.113519
vn 5.197474 1.406507 -1.385860
v 0.083839 0.275897 -0.113522
vn -0.035090 -3.132352 3.207320
v 0.076544 0.261645 -0.086954
vn -0.929803 -2.987022 2.528019
v 0.071555 0.261564 -0.087062
vn -0.087965 -5.250190 -2.293709
v 0.076561 0.261585 -0.092146
vn -1.836872 -3.874349 -3.801569
v 0.072448 0.269749 -0.097239
vn -1.164899 -3.492785 -5.021854
v 0.067572 0.268749 -0.096202
vn -1.134186 -4.460339 -2.093485
v 0.071537 0.261576 -0.092121
vn 5.883512 -1.176110 0.496181
v 0.082819 0.269843 -0.099293
vn 4.971248 -3.040998 -0.077947
v 0.082821 0.269847 -0.104303
vn 6.251307 -0.114572 0.422837
v 0.082822 0.271897 -0.102377
vn -0.000038 1.741423 5.754061
v 0.075552 0.268803 -0.086962
vn 1.844514 3.393361 4.492306
v 0.077594 0.271864 -0.089003
vn -0.423482 3.413720 5.232448
v 0.072610 0.271861 -0.089003
vn 3.880328 3.801040 3.010891
v 0.079734 0.274920 -0.094168
vn 2.472137 4.176163 3.743520
v 0.077639 0.274940 -0.092087
vn 4.378120 3.208054 2.951636
v 0.080744 0.272882 -0.093134
vn -1.671361 -5.828932 -0.606212
v 0.078742 0.270752 -0.108526
vn -2.401899 -4.807597 -2.400605
v 0.077593 0.269782 -0.104363
vn -3.658376 -4.262650 -2.277930
v 0.075562 0.272837 -0.105392
vn -2.050877 -4.615114 -2.925966
v 0.076639 0.267705 -0.100299
vn -3.589903 -4.107215 -2.865409
v 0.075566 0.270793 -0.102333
vn -5.298656 2.159047 -0.791970
v 0.070424 0.279972 -0.104360
vn -1.837546 5.331596 0.786280
v 0.072515 0.282108 -0.104417
vn -3.141459 3.332996 -0.169735
v 0.071469 0.282084 -0.109511
vn -3.292086 0.980078 4.924088
v 0.068433 0.268708 -0.087990
vn -4.001784 1.240900 2.673029
v 0.067363 0.269778 -0.089079
vn 4.788742 3.904886 -0.538490
v 0.081769 0.279019 -0.112514
vn 2.617369 4.078863 -2.187528
v 0.079721 0.281071 -0.113523
vn 1.383054 5.946445 -0.053904
v 0.077632 0.282123 -0.109414
vn 1.918618 -5.007356 -1.175665
v 0.083682 0.270754 -0.113470
vn 1.547233 -1.999429 -3.325768
v 0.081716 0.271897 -0.116686
vn 0.888764 3.510361 -2.810880
v 0.076653 0.282092 -0.114562
vn -0.033843 6.283070 -0.012806
v 0.076522 0.282115 -0.109482
vn -0.893326 4.723383 3.760300
v 0.069544 0.276002 -0.092141
vn 0.652481 4.793076 3.813905
v 0.074521 0.276002 -0.092137
vn -0.030950 5.511211 3.004680
v 0.071561 0.279051 -0.097210
vn -1.415930 -0.114011 5.908467
v 0.070523 0.263758 -0.086948
vn -2.092941 -1.743165 4.689071
v 0.070455 0.262655 -0.087003
vn -4.378388 -2.892408 -0.755636
v 0.071438 0.277013 -0.109533
vn -4.356345 -3.433674 -1.023513
v 0.075552 0.274873 -0.109406
vn -4.462517 -3.169097 -2.248996
v 0.071590 0.275919 -0.106474
vn 3.458043 -2.931170 0.003957
v 0.083841 0.270864 -0.108489
vn 5.190499 2.308976 1.209917
v 0.082812 0.276946 -0.102368
vn 3.400899 4.579372 2.405508
v 0.079711 0.279037 -0.100308
vn 4.297836 3.795721 2.476755
v 0.081757 0.276979 -0.100283
vn -4.322907 -3.881268 -0.055466
v 0.076611 0.271782 -0.111547
vn 4.882041 -1.581904 2.315380
v 0.079754 0.264720 -0.089091
vn 2.549326 -3.230937 1.506631
v 0.077695 0.261627 -0.087111
vn 1.858039 -4.352404 -1.405681
v 0.077658 0.261597 -0.092129
vn -4.600202 -3.463244 -1.143783
v 0.075520 0.274967 -0.113494
vn -1.857437 -1.782404 -2.195279
v 0.076598 0.271894 -0.116673
vn 3.951262 4.516955 1.107881
v 0.080725 0.280058 -0.104380
vn -2.053533 5.115833 1.299279
v 0.071574 0.281101 -0.101312
vn -5.018581 2.210881 -1.334551
v 0.069417 0.279009 -0.102277
vn 0.554768 4.055485 4.640863
v 0.074547 0.274938 -0.091055
vn 1.599070 5.439367 1.074795
v 0.077648 0.282116 -0.104408
vn -0.350646 -2.545005 -1.399729
v 0.072556 0.277091 -0.109509
vn -6.283077 0.002062 -0.016615
v 0.067374 0.268772 -0.091173
vn 3.076050 -4.089630 -1.568462
v 0.080711 0.265664 -0.096190
vn -1.480516 -4.422074 -4.011205
v 0.075635 0.265668 -0.096229
vn 2.869521 3.454336 -3.083876
v 0.081767 0.277949 -0.115626
vn 1.995437 1.591387 -3.995456
v 0.081643 0.276899 -0.116692
vn -0.240072 3.109982 -5.262677
v 0.076753 0.277971 -0.115630
vn -5.494366 1.323129 -0.943040
v 0.067376 0.275912 -0.098257
vn -3.764137 2.594956 1.656316
v 0.067461 0.275955 -0.093094
vn -2.545610 4.480843 1.527629
v 0.069471 0.279035 -0.097210
vn 4.812360 1.671040 2.685878
v 0.080758 0.270820 -0.091096
vn 5.409553 1.611377 2.071679
v 0.081781 0.272864 -0.095186
vn -1.829764 2.081731 -3.207924
v 0.071602 0.282009 -0.114649
vn -2.688664 2.616882 -1.000552
v 0.071494 0.282082 -0.114453
vn -0.027343 1.789545 5.736507
v 0.071555 0.268817 -0.086973
vn -0.050768 -0.024812 6.282749
v 0.075495 0.263789 -0.086967
vn -0.986654 3.637901 4.756601
v 0.069520 0.274896 -0.091031
vn -1.242412 1.683023 5.171144
v 0.070484 0.268760 -0.086962
vn 1.649083 -1.932953 3.195939
v 0.077600 0.261682 -0.086944
vn 2.254078 -0.080556 5.293600
v 0.077601 0.262733 -0.086945
vn 5.344336 -1.750693 1.255185
v 0.080781 0.265775 -0.091156
vn 5.856321 -1.398606 0.768333
v 0.081796 0.267826 -0.095201
vn 1.213568 5.251698 2.901242
v 0.076564 0.279027 -0.097182
vn 1.126212 5.483072 2.434772
v 0.076558 0.281098 -0.101306
vn 2.824978 -4.214692 -1.403398
v 0.081752 0.267714 -0.100249
vn -4.620735 -2.285101 -0.536379
v 0.071469 0.277054 -0.114458
vn 3.297303 4.478367 2.728657
v 0.078700 0.277993 -0.097221
vn 5.273911 1.667238 1.518861
v 0.082803 0.274897 -0.099263
vn -2.357612 5.023687 1.361733
v 0.070455 0.280051 -0.099309
vn 2.174779 0.640893 5.184865
v 0.077631 0.267757 -0.086957
vn 4.003143 1.541770 3.754505
v 0.079720 0.269777 -0.089022
vn 1.793108 -5.585063 -1.599759
v 0.082650 0.269741 -0.104365
vn -1.562164 1.247325 -4.450865
v 0.076661 0.276906 -0.116694
vn 2.334848 4.759846 3.181561
v 0.077627 0.278001 -0.096163
vn -3.887436 -2.397685 -3.125832
v 0.069458 0.273847 -0.102341
vn -1.117743 -5.797359 -0.752060
v 0.078711 0.270747 -0.113516
vn -0.828276 -3.578127 -5.055689
v 0.072492 0.264740 -0.094245
vn 0.833167 1.864437 5.489899
v 0.076605 0.268803 -0.086969
vn -3.659898 1.710480 2.553258
v 0.067404 0.273880 -0.091063
vn -2.497995 -1.963355 -2.110703
v 0.071545 0.276973 -0.114649
# 108 vertices, 0 vertices normals

f 1//1 2//2 3//3
f 4//4 5//5 6//6
f 7//7 3//3 2//2
f 4//4 8//8 5//5
f 9//9 10//10 11//11
f 1//1 12//12 13//13
f 14//14 15//15 16//16
f 17//17 18//18 10//10
f 19//19 15//15 8//8
f 20//20 21//21 22//22
f 23//23 24//24 25//25
f 26//26 27//27 28//28
f 29//29 30//30 31//31
f 32//32 33//33 30//30
f 34//34 35//35 36//36
f 5//5 37//37 38//38
f 2//2 13//13 39//39
f 40//40 41//41 7//7
f 12//12 42//42 43//43
f 44//44 41//41 40//40
f 44//44 45//45 41//41
f 46//46 47//47 48//48
f 19//19 8//8 4//4
f 49//49 8//8 50//50
f 51//51 52//52 53//53
f 1//1 22//22 54//54
f 1//1 13//13 2//2
f 54//54 42//42 12//12
f 55//55 56//56 57//57
f 29//29 31//31 58//58
f 59//59 60//60 61//61
f 58//58 62//62 63//63
f 64//64 55//55 3//3
f 65//65 34//34 66//66
f 46//46 67//67 47//47
f 45//45 35//35 68//68
f 2//2 40//40 7//7
f 19//19 16//16 15//15
f 52//52 51//51 69//69
f 38//38 70//70 5//5
f 71//71 72//72 32//32
f 73//73 74//74 75//75
f 76//76 77//77 78//78
f 7//7 41//41 68//68
f 79//79 80//80 28//28
f 44//44 81//81 82//82
f 23//23 83//83 84//84
f 9//9 11//11 6//6
f 38//38 25//25 85//85
f 38//38 86//86 25//25
f 14//14 87//87 88//88
f 14//14 60//60 87//87
f 24//24 27//27 67//67
f 89//89 90//90 79//79
f 91//91 92//92 48//48
f 75//75 81//81 44//44
f 93//93 21//21 20//20
f 94//94 51//51 36//36
f 83//83 25//25 86//86
f 82//82 36//36 45//45
f 95//95 57//57 56//56
f 26//26 80//80 96//96
f 97//97 65//65 66//66
f 68//68 41//41 45//45
f 98//98 59//59 99//99
f 29//29 54//54 100//100
f 40//40 39//39 73//73
f 7//7 64//64 3//3
f 74//74 13//13 43//43
f 43//43 13//13 12//12
f 49//49 84//84 83//83
f 73//73 13//13 74//74
f 13//13 73//73 39//39
f 18//18 11//11 10//10
f 75//75 44//44 40//40
f 75//75 40//40 73//73
f 74//74 101//101 75//75
f 27//27 102//102 47//47
f 53//53 52//52 31//31
f 103//103 10//10 76//76
f 2//2 39//39 40//40
f 27//27 79//79 28//28
f 27//27 47//47 67//67
f 35//35 45//45 36//36
f 5//5 8//8 37//37
f 86//86 38//38 37//37
f 3//3 55//55 1//1
f 104//104 43//43 42//42
f 68//68 64//64 7//7
f 56//56 64//64 68//68
f 91//91 56//56 92//92
f 15//15 49//49 50//50
f 95//95 56//56 91//91
f 33//33 103//103 31//31
f 35//35 65//65 92//92
f 14//14 88//88 84//84
f 16//16 72//72 61//61
f 96//96 55//55 57//57
f 88//88 87//87 60//60
f 82//82 81//81 94//94
f 36//36 51//51 34//34
f 95//95 26//26 96//96
f 20//20 90//90 93//93
f 105//105 16//16 19//19
f 96//96 57//57 95//95
f 99//99 79//79 24//24
f 10//10 77//77 76//76
f 23//23 98//98 106//106
f 17//17 103//103 33//33
f 100//100 21//21 93//93
f 44//44 82//82 45//45
f 56//56 55//55 64//64
f 1//1 55//55 22//22
f 96//96 22//22 55//55
f 85//85 25//25 67//67
f 59//59 61//61 89//89
f 24//24 79//79 27//27
f 85//85 67//67 46//46
f 26//26 28//28 80//80
f 54//54 22//22 21//21
f 20//20 22//22 96//96
f 16//16 61//61 60//60
f 48//48 47//47 91//91
f 35//35 92//92 68//68
f 46//46 78//78 77//77
f 48//48 97//97 78//78
f 48//48 78//78 46//46
f 85//85 46//46 77//77
f 32//32 30//30 93//93
f 6//6 70//70 9//9
f 71//71 93//93 90//90
f 16//16 60//60 14//14
f 37//37 8//8 49//49
f 20//20 96//96 80//80
f 78//78 97//97 66//66
f 5//5 70//70 6//6
f 61//61 71//71 89//89
f 99//99 106//106 98//98
f 24//24 23//23 106//106
f 17//17 10//10 103//103
f 99//99 59//59 89//89
f 24//24 106//106 99//99
f 79//79 99//99 89//89
f 63//63 101//101 74//74
f 43//43 63//63 74//74
f 17//17 33//33 32//32
f 54//54 29//29 42//42
f 60//60 59//59 88//88
f 59//59 98//98 88//88
f 10//10 9//9 77//77
f 76//76 66//66 103//103
f 68//68 92//92 56//56
f 58//58 31//31 52//52
f 78//78 66//66 76//76
f 77//77 107//107 85//85
f 4//4 6//6 105//105
f 4//4 105//105 19//19
f 85//85 107//107 38//38
f 35//35 34//34 65//65
f 14//14 84//84 15//15
f 37//37 49//49 86//86
f 8//8 15//15 50//50
f 48//48 65//65 97//97
f 92//92 65//65 48//48
f 26//26 102//102 27//27
f 107//107 70//70 38//38
f 80//80 90//90 20//20
f 9//9 70//70 107//107
f 105//105 18//18 17//17
f 105//105 6//6 18//18
f 86//86 49//49 83//83
f 91//91 102//102 95//95
f 89//89 71//71 90//90
f 105//105 72//72 16//16
f 47//47 102//102 91//91
f 95//95 102//102 26//26
f 81//81 108//108 94//94
f 75//75 108//108 81//81
f 101//101 108//108 75//75
f 100//100 54//54 21//21
f 71//71 32//32 93//93
f 1//1 54//54 12//12
f 61//61 72//72 71//71
f 17//17 72//72 105//105
f 63//63 62//62 101//101
f 63//63 43//43 104//104
f 58//58 63//63 104//104
f 29//29 100//100 30//30
f 77//77 9//9 107//107
f 23//23 84//84 98//98
f 30//30 100//100 93//93
f 103//103 66//66 53//53
f 66//66 34//34 53//53
f 17//17 32//32 72//72
f 53//53 31//31 103//103
f 42//42 29//29 104//104
f 104//104 29//29 58//58
f 15//15 84//84 49//49
f 80//80 79//79 90//90
f 88//88 98//98 84//84
f 23//23 25//25 83//83
f 33//33 31//31 30//30
f 94//94 36//36 82//82
f 34//34 51//51 53//53
f 108//108 101//101 62//62
f 24//24 67//67 25//25
f 108//108 62//62 94//94
f 52//52 69//69 62//62
f 51//51 62//62 69//69
f 51//51 94//94 62//62
f 58//58 52//52 62//62
f 18//18 6//6 11//11
# 212 faces, 0 coords texture

# End of File
