####
#
# OBJ File Generated by Meshlab
#
####
# Object corridor_pyramid_h.obj
#
# Vertices: 64
# Faces: 64
#
####
vn 0.227610 -0.862547 0.360925
v 0.099166 0.216583 -0.088334
vn 0.562711 0.645770 0.269611
v 0.099182 0.216645 -0.088336
vn -0.930064 0.195119 0.225230
v 0.099121 0.216624 -0.088339
vn 0.541504 0.589364 -0.592536
v 0.100199 0.217661 -0.085403
vn 0.249170 -0.952630 -0.148278
v 0.100188 0.217603 -0.085387
vn -0.975738 0.136994 -0.165584
v 0.100142 0.217644 -0.085387
vn 0.095257 -0.134199 0.883814
v 0.099167 0.221610 -0.083308
vn 0.107073 0.929363 -0.212324
v 0.099167 0.221652 -0.083354
vn -0.766282 -0.314837 -0.331478
v 0.099129 0.221602 -0.083361
vn -0.271444 -0.593241 0.366272
v 0.104146 0.216584 -0.088334
vn 1.182959 -0.565689 -0.683626
v 0.104184 0.216605 -0.088365
vn 0.268733 0.625679 0.319371
v 0.104175 0.216650 -0.088337
vn -0.712349 0.514379 0.071095
v 0.104129 0.216638 -0.083331
vn -0.197347 -0.758809 -0.388960
v 0.104151 0.216583 -0.083351
vn 0.488596 -0.370553 1.559290
v 0.104168 0.216610 -0.083308
vn 0.560693 0.307963 0.332427
v 0.099189 0.221636 -0.088337
vn -0.538879 0.973727 -0.560509
v 0.099144 0.221643 -0.088366
vn -0.571322 -0.353573 0.279477
v 0.099126 0.221599 -0.088340
vn 0.555305 -0.901098 -0.682442
v 0.099171 0.221596 -0.088369
vn 0.460947 -0.341947 -0.663369
v 0.100202 0.222621 -0.090406
vn -0.830557 -0.267570 0.010068
v 0.100145 0.222624 -0.090376
vn 0.074434 0.884501 0.024741
v 0.100185 0.222674 -0.090375
vn -0.608058 -0.607786 -0.259289
v 0.105155 0.222616 -0.090401
vn -0.367557 0.671616 0.449394
v 0.105165 0.222671 -0.090371
vn 0.611369 0.613068 -1.323720
v 0.105192 0.222653 -0.090414
vn 0.677435 -0.370799 0.449285
v 0.105210 0.222626 -0.090371
vn -0.381231 -0.151139 -0.597595
v 0.099138 0.216600 -0.083368
vn -0.803629 -0.028887 0.819529
v 0.099136 0.216610 -0.083314
vn 0.385439 0.585961 0.173989
v 0.099180 0.216641 -0.083325
vn -0.604505 -0.248288 -0.320849
v 0.105146 0.217621 -0.085389
vn 0.514863 -1.254226 0.758348
v 0.105189 0.217612 -0.085361
vn -0.329386 0.853607 0.653928
v 0.105170 0.217660 -0.085355
vn 0.600819 0.236510 -0.342823
v 0.105213 0.217648 -0.085391
vn -0.837381 0.356187 -0.677779
v 0.104136 0.216627 -0.088371
vn 0.664163 0.397333 -0.354119
v 0.104190 0.216634 -0.083350
vn 0.957490 -0.924217 -0.060652
v 0.099181 0.216590 -0.083338
vn 0.854071 0.068710 -0.010964
v 0.105213 0.217645 -0.090375
vn -0.274142 -0.832699 -0.014579
v 0.105163 0.217606 -0.090376
vn -0.380200 0.476885 -0.607111
v 0.105158 0.217663 -0.090402
vn -0.775231 0.616465 -0.710163
v 0.104136 0.221634 -0.088367
vn 0.704392 -0.833970 -0.609808
v 0.104176 0.221595 -0.088364
vn -0.474699 -0.445242 0.510521
v 0.104134 0.221595 -0.088326
vn 0.540237 0.571223 0.290795
v 0.104183 0.221644 -0.088336
vn 0.229792 0.287405 1.147635
v 0.100185 0.217647 -0.085349
vn -0.627839 -0.557094 -0.262424
v 0.105151 0.222614 -0.085389
vn -0.192818 0.910331 -0.226832
v 0.105172 0.222675 -0.085387
vn 0.885585 -0.222779 -0.358736
v 0.105213 0.222631 -0.085392
vn -0.607902 -0.449576 0.083981
v 0.100156 0.217612 -0.090372
vn -0.032262 0.703261 0.826237
v 0.100185 0.217657 -0.090353
vn 0.151825 0.392279 -0.599426
v 0.100196 0.217657 -0.090409
vn -0.389239 -0.241788 0.539026
v 0.104136 0.221596 -0.083323
vn 0.449884 0.542429 -0.013940
v 0.104184 0.221641 -0.083354
vn -0.800948 0.281681 -0.824215
v 0.104137 0.221619 -0.083373
vn 1.189095 -1.025705 0.052151
v 0.100207 0.217617 -0.090378
vn 0.665238 -0.570605 1.381378
v 0.100193 0.222626 -0.090353
vn 1.089294 -0.760971 -0.664589
v 0.099185 0.221600 -0.083359
vn 0.049435 -0.119129 1.389725
v 0.105180 0.222636 -0.085347
vn 0.113351 -0.051753 -1.369999
v 0.099160 0.216616 -0.088379
vn 0.445131 -0.191667 1.000919
v 0.100200 0.222630 -0.085355
vn 0.909768 -0.256909 -1.165765
v 0.100204 0.222631 -0.085408
vn -0.111828 0.750638 -0.038339
v 0.100183 0.222675 -0.085387
vn -0.539861 -0.522724 -0.086330
v 0.100160 0.222607 -0.085390
vn -0.497962 0.633838 1.492935
v 0.105167 0.217652 -0.090351
vn 0.872566 -1.117528 -0.251775
v 0.104176 0.221589 -0.083356
# 64 vertices, 0 vertices normals

f 1//1 2//2 3//3
f 4//4 5//5 6//6
f 7//7 8//8 9//9
f 10//10 11//11 12//12
f 13//13 14//14 15//15
f 16//16 17//17 18//18
f 16//16 19//19 17//17
f 18//18 17//17 19//19
f 20//20 21//21 22//22
f 23//23 24//24 25//25
f 23//23 25//25 26//26
f 23//23 26//26 24//24
f 27//27 28//28 29//29
f 30//30 31//31 32//32
f 30//30 32//32 33//33
f 32//32 31//31 33//33
f 12//12 34//34 10//10
f 33//33 31//31 30//30
f 35//35 13//13 15//15
f 35//35 15//15 14//14
f 13//13 35//35 14//14
f 26//26 25//25 24//24
f 29//29 28//28 36//36
f 36//36 28//28 27//27
f 29//29 36//36 27//27
f 37//37 38//38 39//39
f 40//40 41//41 42//42
f 43//43 41//41 40//40
f 42//42 41//41 43//43
f 6//6 44//44 4//4
f 5//5 44//44 6//6
f 45//45 46//46 47//47
f 48//48 49//49 50//50
f 51//51 52//52 53//53
f 50//50 49//49 54//54
f 22//22 55//55 20//20
f 21//21 55//55 22//22
f 20//20 55//55 21//21
f 34//34 11//11 10//10
f 11//11 34//34 12//12
f 8//8 7//7 56//56
f 7//7 9//9 56//56
f 50//50 54//54 48//48
f 46//46 57//57 47//47
f 3//3 2//2 58//58
f 1//1 58//58 2//2
f 3//3 58//58 1//1
f 48//48 54//54 49//49
f 47//47 57//57 45//45
f 45//45 57//57 46//46
f 59//59 60//60 61//61
f 59//59 62//62 60//60
f 61//61 60//60 62//62
f 39//39 63//63 37//37
f 39//39 38//38 63//63
f 37//37 63//63 38//38
f 8//8 56//56 9//9
f 4//4 44//44 5//5
f 18//18 19//19 16//16
f 42//42 43//43 40//40
f 52//52 51//51 64//64
f 61//61 62//62 59//59
f 53//53 52//52 64//64
f 53//53 64//64 51//51
# 64 faces, 0 coords texture

# End of File
