####
#
# OBJ File Generated by Meshlab
#
####
# Object corridor_pyramid_e.obj
#
# Vertices: 123
# Faces: 242
#
####
vn 3.831397 0.503033 2.888035
v 0.099613 0.255579 -0.092392
vn 3.807240 1.751032 3.644744
v 0.097598 0.260586 -0.092334
vn 0.720352 -0.355499 6.088307
v 0.095481 0.255561 -0.091257
vn 1.679033 0.930274 5.584735
v 0.095546 0.260605 -0.091287
vn -5.252193 -1.827616 -0.888269
v 0.085351 0.262512 -0.102406
vn -3.058309 2.858108 -0.500301
v 0.085426 0.267672 -0.102407
vn -6.005911 -1.196660 -0.797066
v 0.086373 0.262588 -0.105463
vn 2.611529 3.367940 4.385874
v 0.095546 0.262610 -0.092289
vn 2.327569 -2.422858 1.298757
v 0.105551 0.244434 -0.102412
vn 5.507551 0.966244 1.331254
v 0.105605 0.249602 -0.102412
vn 2.338797 -1.828480 4.149738
v 0.103526 0.247535 -0.099265
vn -4.646073 -4.038716 -0.876487
v 0.090412 0.255433 -0.096403
vn -3.246271 -4.651561 -0.028689
v 0.094378 0.250466 -0.097420
vn -1.366245 -3.134086 2.167644
v 0.094402 0.250439 -0.092386
vn -2.218281 -2.160505 3.309484
v 0.090489 0.255506 -0.091263
vn 5.619990 2.809622 0.006147
v 0.098605 0.260603 -0.099407
vn 5.027612 3.632089 0.001509
v 0.097586 0.262634 -0.100380
vn 4.842316 3.447676 0.920191
v 0.097600 0.262611 -0.095374
vn -2.825500 -1.219411 -3.023726
v 0.087457 0.258531 -0.118524
vn 2.522366 1.197114 -4.440219
v 0.094573 0.261559 -0.118491
vn 2.179005 -0.060327 -5.381411
v 0.094509 0.256535 -0.118524
vn 3.189922 4.092730 3.188992
v 0.095559 0.263623 -0.093308
vn 4.644980 2.939151 2.297726
v 0.097566 0.261642 -0.093340
vn 4.672990 3.958290 -0.901742
v 0.095591 0.264624 -0.105418
vn 3.169105 5.141313 -0.901993
v 0.093590 0.265630 -0.109401
vn 4.399933 4.416622 -0.540035
v 0.094579 0.265638 -0.105422
vn 1.761614 -0.908007 -5.152623
v 0.101469 0.248539 -0.114527
vn 2.282528 1.290298 -4.645524
v 0.101512 0.253545 -0.114524
vn 4.463522 2.000863 -2.410199
v 0.102609 0.253584 -0.113420
vn 0.123300 -6.280449 0.005659
v 0.103484 0.244413 -0.107394
vn 3.229274 -2.770530 -0.561857
v 0.105611 0.244521 -0.107420
vn -4.447397 -3.371973 -0.626437
v 0.091375 0.257470 -0.101422
vn -5.139694 -3.396411 -0.166364
v 0.092382 0.255457 -0.102379
vn 4.938854 3.757361 -0.299729
v 0.095604 0.263605 -0.112380
vn 5.030339 3.611277 -0.922604
v 0.098590 0.259628 -0.107408
vn 4.896033 3.833692 -0.708588
v 0.099582 0.257639 -0.110407
vn -4.685991 -3.900724 0.977883
v 0.094384 0.251454 -0.107390
vn -5.028749 -3.669441 0.684208
v 0.092373 0.254468 -0.106377
vn -4.568978 -3.965858 1.273756
v 0.091379 0.255469 -0.110350
vn -4.007275 -3.957485 1.334383
v 0.092408 0.254479 -0.111302
vn 4.426480 3.955728 -1.119178
v 0.101593 0.255626 -0.111383
vn 5.133790 0.875736 -2.412337
v 0.104600 0.249553 -0.111457
vn 2.535557 -1.818123 -4.624917
v 0.103566 0.244613 -0.112476
vn 0.928071 -3.981467 -2.721889
v 0.103470 0.244414 -0.112393
vn -1.795617 -3.358954 -1.833421
v 0.098431 0.244488 -0.112502
vn -3.930789 -1.718420 2.381833
v 0.087348 0.258524 -0.092382
vn -4.507102 -3.829426 -0.948003
v 0.087371 0.258472 -0.097410
vn 3.391570 -2.137833 -1.259614
v 0.104603 0.244573 -0.111447
vn 3.023884 -3.658029 -0.455286
v 0.104488 0.244414 -0.110394
vn -2.043669 1.347954 -3.991900
v 0.087471 0.263559 -0.118527
vn 1.180104 2.304731 -4.705900
v 0.092499 0.263598 -0.118517
vn -5.640836 -1.081719 -1.053428
v 0.086366 0.260480 -0.116376
vn 5.655416 1.416402 -0.837202
v 0.105609 0.249583 -0.107423
vn 4.967054 3.588560 -0.483768
v 0.097591 0.262628 -0.103405
vn 5.883291 1.457075 0.360100
v 0.099597 0.258592 -0.097335
vn -4.399825 -3.796434 0.850093
v 0.096573 0.250488 -0.105313
vn -4.473690 -4.299169 0.014798
v 0.095367 0.251493 -0.104343
vn 4.436797 4.448936 -0.003768
v 0.095571 0.264648 -0.100369
vn -1.758758 -4.338352 1.756733
v 0.100449 0.244425 -0.102348
vn -2.244262 -4.107160 -1.389868
v 0.089414 0.255439 -0.118349
vn -5.062221 -3.346232 0.922733
v 0.087382 0.258469 -0.113346
vn -2.894510 -4.091595 0.627647
v 0.098460 0.244416 -0.107375
vn -5.380119 -3.118774 0.585094
v 0.096367 0.248477 -0.109374
vn 4.553988 2.986440 -1.544870
v 0.095573 0.263634 -0.115444
vn 5.336550 1.775145 -2.366106
v 0.096606 0.260592 -0.115425
vn 4.996661 0.737281 -3.390904
v 0.095592 0.260526 -0.117467
vn 1.742703 -1.766595 1.560348
v 0.099570 0.250457 -0.092347
vn 4.774817 4.034552 -0.240083
v 0.101570 0.255648 -0.106421
vn 5.176623 3.462193 -0.643380
v 0.099596 0.258620 -0.106405
vn -5.365688 -2.099604 0.558544
v 0.086346 0.260538 -0.111379
vn -3.743639 -4.147169 0.737239
v 0.089401 0.255441 -0.113376
vn 5.050573 3.539310 -0.265233
v 0.103591 0.253628 -0.105389
vn 4.893250 2.941552 1.488017
v 0.103578 0.253632 -0.100347
vn -2.123296 -3.938973 2.534039
v 0.098429 0.247459 -0.099304
vn 0.814835 3.657058 4.762422
v 0.093500 0.263614 -0.092274
vn -1.065414 1.061485 5.645555
v 0.089484 0.261564 -0.091257
vn 0.904108 1.705237 5.553325
v 0.094472 0.261591 -0.091263
vn -0.030304 5.042165 3.596745
v 0.091473 0.266658 -0.095311
vn 1.072512 5.037838 3.056143
v 0.092522 0.266669 -0.095344
vn 0.556649 5.812102 1.431039
v 0.091507 0.267681 -0.097372
vn 5.233026 0.582269 2.251349
v 0.099604 0.255559 -0.097336
vn 4.066736 1.194072 3.688318
v 0.103573 0.252540 -0.099292
vn 3.640363 4.559520 1.511320
v 0.094577 0.265644 -0.095404
vn 1.595088 4.557210 3.584178
v 0.093539 0.265627 -0.094297
vn 2.244413 5.296865 0.358432
v 0.092574 0.267648 -0.098396
vn 3.178761 4.951854 1.217401
v 0.093543 0.266666 -0.096361
vn -2.346199 -1.972533 3.217199
v 0.089470 0.256547 -0.091257
vn 1.950507 4.284158 -3.623555
v 0.092562 0.264644 -0.117445
vn 2.158734 5.350047 -0.210649
v 0.092492 0.267684 -0.103397
vn 3.655491 4.863664 -0.809004
v 0.093550 0.266661 -0.105425
vn 1.044164 5.807658 -1.110323
v 0.091469 0.267673 -0.105447
vn -2.566176 2.690011 1.063180
v 0.085477 0.267681 -0.097361
vn -5.766427 -0.991234 0.835722
v 0.085350 0.262517 -0.097374
vn -2.700376 2.758611 2.990453
v 0.086376 0.266513 -0.095314
vn 3.628716 4.283834 -1.863797
v 0.094544 0.264649 -0.115459
vn 2.218168 5.368927 -0.009621
v 0.093529 0.265668 -0.113346
vn -4.784244 -3.932709 0.871128
v 0.090378 0.257463 -0.104372
vn -0.010260 6.283027 0.010427
v 0.090433 0.267660 -0.102331
vn -2.625753 1.666918 3.660977
v 0.087358 0.263544 -0.092334
vn -4.760286 -3.976629 0.293296
v 0.087404 0.260438 -0.105394
vn -4.562887 -3.752767 1.151495
v 0.090352 0.257529 -0.109355
vn 2.261969 5.172909 -0.670755
v 0.093547 0.265653 -0.114450
vn -2.717073 3.456594 -1.004433
v 0.086470 0.267677 -0.105437
vn -2.335639 2.443193 -1.277822
v 0.086402 0.265624 -0.116473
vn -0.168116 4.460391 4.413477
v 0.088457 0.265640 -0.094294
vn -2.444391 -1.611036 -3.190874
v 0.096450 0.248511 -0.114518
vn -1.259749 -2.435328 -4.198973
v 0.089484 0.255550 -0.118527
vn 0.627608 5.178978 -2.185720
v 0.091522 0.265668 -0.116443
vn -4.437603 -3.267059 -1.829838
v 0.094377 0.251473 -0.112434
vn 0.267352 6.169230 -0.771003
v 0.091443 0.265675 -0.111357
vn -3.484696 3.075298 -0.506869
v 0.086387 0.265644 -0.111372
vn 5.348876 3.252983 -0.079022
v 0.099601 0.258613 -0.104396
vn 5.261914 3.369602 -0.001391
v 0.099605 0.258604 -0.100387
vn 5.635302 2.451747 0.660450
v 0.099592 0.258627 -0.098406
vn 1.014705 -2.382318 -3.399046
v 0.094490 0.255461 -0.118495
vn 4.950605 3.634860 -1.121227
v 0.096579 0.262630 -0.106439
vn 3.730660 3.723775 -3.105675
v 0.101540 0.254654 -0.113455
vn 3.894825 -0.737316 -4.393119
v 0.096583 0.255565 -0.115480
vn -0.425497 -2.527146 -5.297984
v 0.096548 0.253529 -0.114508
vn 4.434528 -1.476718 -3.487258
v 0.095597 0.255556 -0.117462
vn 2.517822 -2.911213 3.938668
v 0.099577 0.250481 -0.097325
vn 4.548168 -0.015499 2.807803
v 0.099594 0.253565 -0.097318
vn -1.136937 -5.590857 -1.604248
v 0.091542 0.255428 -0.115394
# 123 vertices, 0 vertices normals

f 1//1 2//2 3//3
f 4//4 3//3 2//2
f 5//5 6//6 7//7
f 4//4 2//2 8//8
f 9//9 10//10 11//11
f 12//12 13//13 14//14
f 14//14 3//3 15//15
f 16//16 17//17 18//18
f 19//19 20//20 21//21
f 15//15 3//3 4//4
f 22//22 23//23 18//18
f 24//24 25//25 26//26
f 27//27 28//28 29//29
f 30//30 31//31 9//9
f 12//12 32//32 33//33
f 34//34 35//35 36//36
f 37//37 38//38 39//39
f 40//40 37//37 39//39
f 29//29 41//41 42//42
f 43//43 44//44 45//45
f 46//46 47//47 12//12
f 23//23 22//22 8//8
f 44//44 48//48 49//49
f 44//44 43//43 48//48
f 19//19 50//50 51//51
f 52//52 50//50 19//19
f 53//53 10//10 31//31
f 54//54 17//17 16//16
f 2//2 55//55 23//23
f 37//37 56//56 57//57
f 26//26 58//58 24//24
f 23//23 8//8 2//2
f 9//9 59//59 30//30
f 19//19 60//60 61//61
f 19//19 61//61 52//52
f 58//58 17//17 54//54
f 62//62 63//63 45//45
f 59//59 62//62 30//30
f 58//58 54//54 24//24
f 18//18 17//17 58//58
f 64//64 65//65 66//66
f 3//3 14//14 67//67
f 3//3 67//67 1//1
f 68//68 36//36 69//69
f 43//43 42//42 48//48
f 49//49 48//48 42//42
f 61//61 70//70 52//52
f 61//61 60//60 71//71
f 49//49 30//30 44//44
f 9//9 31//31 10//10
f 30//30 62//62 44//44
f 12//12 47//47 32//32
f 10//10 72//72 73//73
f 59//59 11//11 74//74
f 9//9 11//11 59//59
f 75//75 76//76 77//77
f 78//78 79//79 80//80
f 10//10 53//53 72//72
f 73//73 81//81 82//82
f 22//22 83//83 84//84
f 85//85 86//86 58//58
f 12//12 15//15 87//87
f 20//20 51//51 88//88
f 89//89 90//90 91//91
f 92//92 93//93 94//94
f 34//34 95//95 96//96
f 32//32 97//97 33//33
f 47//47 93//93 5//5
f 46//46 93//93 47//47
f 80//80 98//98 92//92
f 46//46 99//99 93//93
f 12//12 14//14 15//15
f 12//12 87//87 46//46
f 37//37 63//63 56//56
f 92//92 98//98 6//6
f 100//100 97//97 32//32
f 87//87 76//76 46//46
f 97//97 100//100 101//101
f 22//22 84//84 75//75
f 22//22 18//18 83//83
f 18//18 58//58 83//83
f 89//89 98//98 85//85
f 102//102 95//95 88//88
f 58//58 89//89 85//85
f 6//6 98//98 103//103
f 104//104 50//50 52//52
f 83//83 58//58 86//86
f 34//34 64//64 95//95
f 96//96 95//95 102//102
f 64//64 88//88 95//95
f 42//42 41//41 72//72
f 42//42 72//72 53//53
f 105//105 75//75 78//78
f 84//84 78//78 75//75
f 78//78 84//84 79//79
f 80//80 79//79 86//86
f 85//85 80//80 86//86
f 84//84 83//83 86//86
f 79//79 84//84 86//86
f 45//45 63//63 106//106
f 2//2 1//1 55//55
f 75//75 8//8 22//22
f 100//100 70//70 101//101
f 58//58 26//26 89//89
f 60//60 19//19 107//107
f 108//108 88//88 51//51
f 109//109 37//37 40//40
f 109//109 40//40 71//71
f 91//91 110//110 103//103
f 27//27 43//43 45//45
f 43//43 27//27 42//42
f 42//42 27//27 29//29
f 13//13 57//57 74//74
f 19//19 51//51 20//20
f 35//35 69//69 36//36
f 62//62 56//56 63//63
f 103//103 111//111 7//7
f 103//103 7//7 6//6
f 109//109 106//106 63//63
f 45//45 44//44 62//62
f 35//35 54//54 69//69
f 112//112 69//69 54//54
f 30//30 49//49 31//31
f 113//113 114//114 73//73
f 27//27 45//45 106//106
f 49//49 53//53 31//31
f 49//49 42//42 53//53
f 80//80 85//85 98//98
f 20//20 88//88 64//64
f 115//115 60//60 107//107
f 21//21 115//115 107//107
f 103//103 110//110 111//111
f 54//54 116//116 24//24
f 37//37 109//109 63//63
f 65//65 64//64 34//34
f 73//73 112//112 113//113
f 117//117 118//118 65//65
f 21//21 107//107 19//19
f 28//28 117//117 29//29
f 96//96 102//102 108//108
f 119//119 120//120 118//118
f 88//88 108//108 102//102
f 119//119 115//115 120//120
f 65//65 34//34 36//36
f 56//56 74//74 57//57
f 20//20 66//66 21//21
f 89//89 26//26 90//90
f 97//97 101//101 38//38
f 104//104 108//108 50//50
f 51//51 50//50 108//108
f 73//73 82//82 10//10
f 11//11 10//10 82//82
f 94//94 99//99 105//105
f 94//94 93//93 99//99
f 20//20 64//64 66//66
f 5//5 93//93 6//6
f 75//75 77//77 8//8
f 6//6 93//93 92//92
f 75//75 99//99 76//76
f 105//105 99//99 75//75
f 119//119 27//27 106//106
f 103//103 98//98 91//91
f 76//76 99//99 46//46
f 8//8 77//77 4//4
f 91//91 98//98 89//89
f 78//78 94//94 105//105
f 80//80 94//94 78//78
f 92//92 94//94 80//80
f 87//87 77//77 76//76
f 87//87 15//15 77//77
f 15//15 4//4 77//77
f 1//1 81//81 55//55
f 72//72 68//68 73//73
f 112//112 73//73 68//68
f 117//117 28//28 118//118
f 28//28 119//119 118//118
f 41//41 29//29 117//117
f 5//5 32//32 47//47
f 100//100 32//32 5//5
f 66//66 65//65 118//118
f 12//12 33//33 13//13
f 97//97 38//38 33//33
f 70//70 61//61 101//101
f 54//54 113//113 112//112
f 54//54 16//16 113//113
f 52//52 70//70 111//111
f 104//104 52//52 111//111
f 59//59 56//56 62//62
f 59//59 74//74 56//56
f 21//21 66//66 120//120
f 67//67 14//14 121//121
f 18//18 23//23 55//55
f 16//16 18//18 55//55
f 21//21 120//120 115//115
f 13//13 74//74 121//121
f 13//13 121//121 14//14
f 71//71 101//101 61//61
f 101//101 71//71 39//39
f 101//101 39//39 38//38
f 104//104 110//110 108//108
f 81//81 1//1 122//122
f 81//81 122//122 82//82
f 68//68 69//69 112//112
f 38//38 57//57 33//33
f 13//13 33//33 57//57
f 38//38 37//37 57//57
f 36//36 117//117 65//65
f 41//41 117//117 36//36
f 108//108 110//110 96//96
f 41//41 68//68 72//72
f 68//68 41//41 36//36
f 100//100 5//5 7//7
f 100//100 7//7 70//70
f 70//70 7//7 111//111
f 109//109 119//119 106//106
f 118//118 120//120 66//66
f 113//113 16//16 114//114
f 119//119 28//28 27//27
f 55//55 114//114 16//16
f 104//104 111//111 110//110
f 34//34 116//116 35//35
f 35//35 116//116 54//54
f 40//40 39//39 71//71
f 81//81 73//73 114//114
f 81//81 114//114 55//55
f 67//67 122//122 1//1
f 116//116 25//25 24//24
f 34//34 25//25 116//116
f 34//34 96//96 25//25
f 96//96 110//110 25//25
f 11//11 121//121 74//74
f 82//82 121//121 11//11
f 67//67 121//121 122//122
f 82//82 122//122 121//121
f 26//26 25//25 90//90
f 91//91 25//25 110//110
f 90//90 25//25 91//91
f 60//60 123//123 71//71
f 109//109 71//71 123//123
f 115//115 123//123 60//60
f 115//115 119//119 123//123
f 109//109 123//123 119//119
# 242 faces, 0 coords texture

# End of File
